<?xml version="1.0" standalone="no"?>
<!DOCTYPE svg PUBLIC "-//W3C//DTD SVG 20010904//EN"
 "http://www.w3.org/TR/2001/REC-SVG-20010904/DTD/svg10.dtd">
<svg version="1.0" xmlns="http://www.w3.org/2000/svg"
 width="512.000000pt" height="512.000000pt" viewBox="0 0 512.000000 512.000000"
 preserveAspectRatio="xMidYMid meet">
<metadata>
Created by potrace 1.14, written by Peter Selinger 2001-2017
</metadata>
<g transform="translate(0.000000,512.000000) scale(0.100000,-0.100000)"
fill="#000000" stroke="none">
<path d="M2297 4644 c-1 -1 -76 -4 -167 -8 -91 -4 -183 -8 -205 -11 -165 -17
-229 -24 -270 -30 -66 -10 -112 -17 -148 -23 -22 -4 77 -7 220 -7 222 0 397
-7 493 -19 303 -40 515 -86 725 -158 332 -113 619 -271 885 -486 102 -82 339
-314 390 -380 14 -18 38 -47 53 -65 48 -55 199 -272 280 -404 100 -162 234
-432 321 -643 37 -91 71 -174 77 -185 8 -19 4 181 -6 260 -2 17 -7 59 -10 94
-3 35 -7 67 -9 70 -2 3 -7 29 -10 56 -4 28 -9 57 -11 65 -2 8 -6 26 -9 40 -29
161 -117 413 -202 581 -104 207 -221 366 -404 550 -206 207 -413 343 -725 479
-170 73 -514 164 -700 184 -60 7 -131 16 -165 22 -14 2 -92 7 -175 10 -82 3
-167 6 -188 8 -20 1 -38 1 -40 0z"/>
<path d="M2190 4264 c-113 -54 -171 -89 -265 -163 -67 -53 -178 -160 -239
-232 -50 -58 -154 -216 -190 -287 -76 -152 -144 -358 -162 -490 -3 -26 -10
-69 -15 -97 -9 -54 -5 -377 6 -435 41 -232 80 -359 158 -515 35 -71 140 -242
156 -255 3 -3 19 -23 35 -45 16 -22 37 -47 45 -56 9 -8 33 -35 54 -58 21 -23
57 -50 81 -61 44 -19 185 -56 246 -65 119 -17 175 -22 300 -24 112 -2 139 0
135 11 -2 7 -6 27 -9 43 -3 17 -17 81 -30 143 -24 108 -52 277 -62 372 -19
193 -19 509 1 700 11 104 15 132 25 190 5 30 12 70 15 88 49 293 195 746 344
1065 23 49 41 92 41 96 0 6 -114 44 -167 56 -94 20 -227 45 -263 49 -146 17
-139 18 -240 -30z"/>
<path d="M1790 4279 c-25 -5 -81 -16 -125 -25 -252 -49 -558 -161 -869 -315
-120 -60 -300 -158 -345 -188 -33 -22 163 -632 322 -1001 97 -224 252 -492
372 -643 78 -97 194 -222 200 -215 2 2 -16 44 -40 93 -39 82 -129 325 -121
325 2 0 -2 21 -10 47 -57 190 -66 567 -18 803 51 249 144 477 272 669 32 47
68 101 81 120 31 46 230 245 299 299 56 44 55 46 -18 31z"/>
<path d="M3210 4027 c0 -6 9 -49 19 -93 l18 -81 -52 0 c-95 0 -172 -38 -227
-112 -82 -113 -68 -274 34 -372 63 -60 197 -89 272 -60 16 6 31 9 34 6 14 -14
5 -459 -11 -550 -3 -16 -8 -56 -11 -87 -8 -76 -49 -281 -80 -398 -27 -102
-104 -332 -134 -403 -11 -23 -30 -67 -43 -97 -13 -30 -48 -102 -77 -159 -30
-57 -50 -101 -45 -98 4 3 62 15 128 26 66 12 147 28 180 36 88 20 360 83 435
101 36 8 85 20 110 27 25 6 47 12 50 12 98 17 113 28 189 150 103 164 174 324
215 492 41 165 50 242 51 433 0 231 4 217 -104 360 -52 69 -97 127 -101 130
-3 3 -16 18 -28 33 -60 79 -275 306 -352 372 -201 172 -470 363 -470 332z"/>
<path d="M194 3470 c3 -25 8 -81 11 -125 3 -44 8 -91 10 -105 2 -14 7 -52 10
-85 6 -53 26 -185 40 -255 2 -13 7 -42 11 -65 9 -62 80 -339 113 -440 63 -194
154 -405 228 -529 43 -72 153 -239 162 -246 4 -3 18 -21 31 -40 34 -50 233
-246 310 -306 278 -213 615 -343 985 -379 39 -4 84 -9 100 -11 38 -5 292 -5
365 0 91 6 213 17 240 21 14 3 43 8 65 11 85 12 303 56 370 74 39 11 81 21 95
24 14 3 72 19 129 36 57 17 111 33 120 36 18 4 231 80 331 117 259 98 713 311
909 426 26 16 58 32 70 36 12 3 19 11 15 16 -3 5 -9 7 -13 4 -5 -2 -44 -7 -87
-10 -72 -4 -108 -7 -229 -20 -66 -7 -182 -24 -228 -34 -23 -5 -62 -12 -87 -16
-25 -3 -58 -10 -75 -15 -16 -5 -41 -11 -55 -14 -14 -2 -63 -13 -110 -25 -47
-11 -96 -22 -110 -24 -14 -3 -70 -17 -125 -32 -81 -22 -476 -125 -535 -140
-252 -63 -479 -109 -630 -130 -25 -3 -56 -8 -70 -10 -129 -20 -407 -25 -530
-11 -149 18 -150 18 -275 53 -95 26 -111 32 -243 94 -71 33 -213 121 -249 153
-6 6 -26 22 -45 36 -41 30 -200 190 -252 254 -130 158 -239 332 -356 571 -82
167 -95 195 -130 285 -12 30 -28 69 -35 85 -8 17 -20 50 -28 75 -8 25 -22 63
-30 85 -24 63 -118 355 -123 379 -7 41 -63 229 -70 235 -3 3 -4 -14 0 -39z"/>
<path d="M4460 2715 c-1 -5 -3 -17 -4 -25 -2 -8 -6 -47 -9 -87 -4 -40 -11 -91
-16 -115 -6 -24 -12 -56 -15 -73 -12 -68 -19 -94 -43 -175 -15 -47 -27 -89
-29 -95 -7 -30 -68 -162 -112 -240 -27 -49 -48 -92 -46 -94 1 -1 36 2 76 9 87
14 98 15 208 30 47 6 99 13 115 16 17 2 93 7 170 10 77 4 141 7 142 8 5 4
-224 464 -297 596 -81 146 -92 164 -110 190 -9 14 -20 32 -23 40 -3 8 -6 11
-7 5z"/>
<path d="M4856 1421 c-12 -19 -404 -237 -546 -303 -58 -26 -112 -53 -120 -58
-18 -12 -11 -9 -200 -88 -135 -56 -446 -166 -497 -177 -10 -2 -70 -17 -133
-33 -123 -32 -346 -78 -420 -87 -85 -10 -135 -16 -160 -21 -145 -23 -609 -23
-795 1 -45 6 -244 36 -269 41 -27 5 -165 33 -191 39 -78 16 -274 70 -310 84
-11 5 -65 23 -120 41 -55 18 -172 63 -260 101 -159 67 -160 67 -120 32 188
-168 486 -346 770 -459 169 -68 461 -150 595 -168 25 -3 56 -8 70 -11 14 -2
50 -7 80 -10 30 -3 78 -7 105 -11 83 -9 384 -11 475 -3 245 21 239 20 385 49
80 16 221 52 335 84 107 31 295 108 430 176 363 182 643 417 871 730 32 45 41
60 35 60 -3 0 -7 -4 -10 -9z"/>
</g>
</svg>
